<svg id="Object" xmlns="http://www.w3.org/2000/svg" viewBox="0 0 121.44 147.82"><defs><style>.cls-1{fill:#92c853;}.cls-2{fill:#ec1c24;}.cls-3{fill:#517f40;}.cls-4{fill:#fff;}</style></defs><title>logo</title><path class="cls-1" d="M564.3,498.67s-6.3-2.1-8.59-4.77-2.67-7.44-2.67-7.44,5.73,8,13.36,5.53,12-4.39,14.7-2.29,9.92,4.77,9.92,4.77,2.86-6.11,5.73-6.3,7.63,1.15,10.5-1.15S613,475.39,613,475.39s0.76,12-1.34,15.08-11.26,8-16.22,9a24.71,24.71,0,0,1-12.79-1.15C579.38,497.14,565.45,498.48,564.3,498.67Z" transform="translate(-534.81 -458.02)"/><path class="cls-1" d="M584.15,485.31a15.47,15.47,0,0,0-4-8.59c-3.82-4.39-6.68-10.5-6.3-11.64s5.53-2.86,6.11-3.24,3.82,4.77,5.92,10.5a40.71,40.71,0,0,1,2.1,12.21Z" transform="translate(-534.81 -458.02)"/><path class="cls-2" d="M564.88,501.34c-14.91,6.39-33.59,27.86-27.48,48.09s32.44,39.7,60.31,35.88,43.9-17.56,50-39.7-10.69-41.6-24-46.95-18.32,1.14-27.1,1.14-15.27-1.91-21-1.91S570.22,499.05,564.88,501.34Z" transform="translate(-534.81 -458.02)"/><path class="cls-3" d="M585.54,466.73c2.6,5.68,2.19,10.61,1.27,16.58a1.08,1.08,0,0,0,1.79,1c5.31-5.18,2.71-13.57.1-19.45-0.76-1.71-2.34-6.9-4.85-6.88-3.68,0-8.5,3.38-11.84,4.82a1.71,1.71,0,0,0-.81,2c2.76,6.89,8.43,12,11.54,18.63-1.68-1.15-3.42-1.8-5-1.38-3.19.88-5.82,3.47-9.16,4.4-6.19,1.72-12.87-.65-17.48-4.79-1.15-1-3.49-.07-2.84,1.64,2.4,6.34,7.38,13.85,14.18,16.21a67.93,67.93,0,0,0-14.3,10.19c-10,9.17-15.07,27.19-12.85,40.27,2.4,14.13,16.21,24.45,28.2,30.2,13.18,6.32,29.24,7.91,43.59,5.79,16.17-2.38,29.67-7,38.86-21,8.91-13.58,13.06-26.85,8.23-42.83-4-13.14-15-24.23-27.16-30-4.81-2.27-11.21-3.63-16.51-2.56-7.52,1.52-14.57,9.09-22.33,7.86a1.72,1.72,0,0,0-.89,3.33c6.8,2,12-2.13,17.71-5.44,12.91-7.56,28.08,3,36.92,12.1,10.37,10.7,13.28,26.72,8.88,40.64-2,6.3-6.28,12.06-9.87,17.52-5.1,7.75-12.19,10.83-20.68,13.56-24.64,7.93-54.16,4.22-72.82-14.69-12.21-12.38-9.79-28.3-3.26-42.81,5.32-11.82,25.16-26.71,38.64-21.55,1.61,0.62,2.7-2,1.17-2.79-5.64-2.78-12.06-1.9-18.16.61-4.16-3.39-8.18-5.93-11.21-10A24.35,24.35,0,0,0,567,490.17a22.26,22.26,0,0,0,8.62-2.82c4.8-2.49,8.86,3.27,13.35,5.07a0.7,0.7,0,0,0,.86-0.33,3.43,3.43,0,0,0,2-1.69c1.34-1.9,3.44-6.24,6.91-3.63a3.29,3.29,0,0,0,2.46.74c6-1.12,7.85-7.67,10.58-12.73,0,4.62-1.16,8.91-1.52,13.74a1,1,0,0,0,1.68.7c4.56-5.35,4.11-13.48,2.93-20a1.87,1.87,0,0,0-3.1-.83c-2.42,2.29-3.36,5.25-4.76,8.2a26.09,26.09,0,0,1-3.7,5.42c-1.82,2.17-2.13,1.42-4.24.8-5.38-1.57-7.87,2.78-10.36,6.7a33.41,33.41,0,0,0-3.16-3.68,1.27,1.27,0,0,0,.37-1.15c-1.18-7.65-7.56-12.69-10.78-19.42l5.52-2.35C584.05,461.48,584.29,464,585.54,466.73Z" transform="translate(-534.81 -458.02)"/><path class="cls-4" d="M551.14,522.05c-18.17,16.58,2.62,49.79,23.48,51.86,1.15,0.11,1.25-1.41.52-1.95-8.38-6.25-16.61-9.46-22.58-18.8-6.27-9.82-4.09-20.32-.18-30.38C552.68,522,551.64,521.59,551.14,522.05Z" transform="translate(-534.81 -458.02)"/><path class="cls-4" d="M570,562.56c0.71,2.71,2.67,4.09,4.94,5.53,3.27,2.08,6.6,4,10.45,4.67,0.72,0.12,1.53-.82.81-1.39a39.25,39.25,0,0,0-6.53-4c-2.72-1.41-6.43-2.86-8.33-5.39A0.74,0.74,0,0,0,570,562.56Z" transform="translate(-534.81 -458.02)"/><path class="cls-4" d="M643.23,544.23a12.7,12.7,0,0,0-2.48-3.31,32.52,32.52,0,0,1-2.34-3.46,79.59,79.59,0,0,1-4.38-7.21c0.29,0.05.29-.4,0.19-0.58a0.64,0.64,0,0,0,0-1.12c0.56,0,.5-0.78.24-1a1.24,1.24,0,0,0-.78,0,1.75,1.75,0,0,0,.44-0.59,5.05,5.05,0,0,1-.24-0.58,3.36,3.36,0,0,1,.29-0.44,16.78,16.78,0,0,1,2.58-2.83c0.21-.18.55-0.36,0.88-0.63a2.08,2.08,0,0,0,.78-0.78,0.67,0.67,0,0,0-.83-0.44,5.64,5.64,0,0,0-1.17.54c-0.18,0-.53,0-0.78,0a6.47,6.47,0,0,0-1.31.54c-0.34.13-.69,0.23-1,0.39a14.65,14.65,0,0,1-3,1.27c-0.39.08-.82,0.09-1.22,0.19a2.57,2.57,0,0,0-1.71,1.17,1.78,1.78,0,0,0,.63,1.85,2,2,0,0,1,.63.88,2.12,2.12,0,0,1-1.17.63,26.55,26.55,0,0,1-4.68.88,55.28,55.28,0,0,0-6.58.83,6.78,6.78,0,0,0-.73.19,16.68,16.68,0,0,1-2.14.63c-1,.22-2,0.47-3.07.63a29.14,29.14,0,0,1-3.41.2c-1.17,0-2.27.34-3.26,0.44-0.64.06-1.36,0.1-2,.18l0.17-.44c0.15-.45.29-0.91,0.42-1.37a9.68,9.68,0,0,0,.31-3.63,12.29,12.29,0,0,1,.53,2.91,13.8,13.8,0,0,1,0,1.56c0,0.21,0,.31,0,0.52,0-.2.07-0.29,0.11-0.5,0.1-.5.19-1,0.24-1.54a8.76,8.76,0,0,0-1-5.45,6.94,6.94,0,0,0-3.42-2.89,10.1,10.1,0,0,0-1.42-1c-0.28,0-.54,0-0.8,0a4.32,4.32,0,0,0-.61,0s0.41,0.06.57,0.1a8.81,8.81,0,0,1,1.33.34,9.37,9.37,0,0,0-1.26-.2c-0.5-.05-1-0.06-1.45-0.07h-0.56l0.54,0.07,0.62,0.1,0.37,0.08,0.38,0.1,0.52,0.17,0.38,0.15a11.56,11.56,0,0,0-1.38-.29,3.86,3.86,0,0,0-.55-0.07l0.44,0.14-0.49,0c-0.26-.11-0.53-0.22-0.81-0.31a5,5,0,0,0-2.33-.23,4.89,4.89,0,0,0-2.33,1.15,13.32,13.32,0,0,0-1,.93l-0.28.3,0.34-.25a12.22,12.22,0,0,1,1.13-.78,4.62,4.62,0,0,1,2.6-.75,4.31,4.31,0,0,0-2.69,1.65c-0.27.31-.51,0.63-0.75,0.93l-0.23.3,0.3-.25c0.29-.26.6-0.53,0.92-0.78l0.26-.19-0.29.37-0.16.16c-0.22.22-.43,0.45-0.64,0.68l0.4-.36,0.15-.13-0.35.52c-0.24.36-.48,0.71-0.75,1l-0.27.33,0.35-.26,0.36-.31a6.17,6.17,0,0,1-.82.95,4.38,4.38,0,0,1-.34.29,4,4,0,0,0,.4-0.22,7.7,7.7,0,0,0,1.05-.85l0.73-.71c0,0.12-.07.25-0.1,0.37l-0.34.52-0.24.34,0.29-.3,0.23-.25a6.49,6.49,0,0,0-.06,1.46c0,0.19.07,0.4,0.1,0.59a2.4,2.4,0,0,1-.58,1.9,1.44,1.44,0,0,0-.49.93c0.07,0.42.64,0.32,0.78,0.68a4.16,4.16,0,0,1-.19.73,0.75,0.75,0,0,0,.59.39,0.64,0.64,0,0,0-.29.54,4.4,4.4,0,0,1,.39.59,5,5,0,0,0,.1,1.07c0.47,0.79,1.65,0,2.48.24,0.55,0.19.79,1.31,1.07,1.85a6.84,6.84,0,0,0,.58.88,1.72,1.72,0,0,1,.54.83,27.72,27.72,0,0,0-6.82,1,15.66,15.66,0,0,1-3.46.44c-0.62,0-1.26,0-1.9,0a16,16,0,0,1-1.9.1c-0.44,0-.83-0.13-1.22-0.15a16.23,16.23,0,0,0-3.75.44c-1.49.29-3,.69-4.53,1a24.63,24.63,0,0,1-4.77.78,21.88,21.88,0,0,0-2.63,0c-0.43.05-.85,0.11-1.27,0.15s-0.92,0-1.36,0c-0.27,0-.57.18-0.88,0.19a11.4,11.4,0,0,1-1.75-.19c-0.37,0-.72,0-1.07-0.1a12.35,12.35,0,0,0-1.75-.24,0.77,0.77,0,0,0-.73.15,1,1,0,0,0,1.07.68c0.35,0.66,1.38.55,2.19,0.68,0.53,0.09,1,.31,1.51.44s1,0.22,1.56.34,1,0.38,1.46.49a3.83,3.83,0,0,0,2.19-.15,6,6,0,0,1,.93-0.54,13.69,13.69,0,0,1,1.71-.2c3-.31,6.21.21,9.11,0.2,1.23,0,2.4-.21,3.56-0.29,1.72-.12,3.74,0,5.7,0s3.77-.23,5.55-0.1a5.28,5.28,0,0,1,1.9.49,3.7,3.7,0,0,1,.83.86,6.37,6.37,0,0,1,.76.94c1,1.74.35,4.36,2.34,5.76a4,4,0,0,0,2.23.43c0.59,0,1.94-.6,2.45-0.44a5.85,5.85,0,0,1,1.27,1A9.13,9.13,0,0,0,605,553a9.5,9.5,0,0,0,1.22.49c2,0.62,3.59,2.23,5.07,3.46a4.7,4.7,0,0,0,1,.73c0.15,0.06.34,0,.49,0s0.35,0.17.54,0.24c1.35,0.52,2.68,1,3.9,1.56-0.86,3.51.07,6.74,0.68,9.69,0.32,1.52.6,3,1,4.53a32.85,32.85,0,0,1,.73,3.41c0.06,0.42,0,.87.1,1.32,0.11,0.65.4,1.31,0.54,2s0.42,1.34.59,2a33.86,33.86,0,0,1,.44,4.68c0.14,1.52.35,3.06,0.54,4.58a26.41,26.41,0,0,1,.53,5.84c-0.24,2.68-1.63,3.85-3.6,4.82a21.67,21.67,0,0,1-2.63,1.17c-0.35.11-.88,0.19-1.27,0.34a3.55,3.55,0,0,0-1.07.58,1.83,1.83,0,0,0,.83.92c0.14,0.06.34,0,.54,0s0.33,0.17.49,0.19a1.32,1.32,0,0,0,.34,0,3.62,3.62,0,0,0,.59.1,1.42,1.42,0,0,1,.34-0.1s0.16,0.13.19,0.15a3.78,3.78,0,0,0,.93.1,8.67,8.67,0,0,0,3-.34,13.81,13.81,0,0,1,1.75-.29,16.24,16.24,0,0,1,1.85,0,3.9,3.9,0,0,0,1.85-.24c1-.61.42-2,0.15-3a15.87,15.87,0,0,1-.39-1.95,19.9,19.9,0,0,1,.1-4.33c0.12-1.38.26-2.79,0.49-4.14a25,25,0,0,0,.59-4,20.17,20.17,0,0,0-1.41-7.06,10.54,10.54,0,0,1-.63-3.6c0-1.29.06-2.65,0.19-4,0.22-2.32,1.09-4.53,1.51-7a49.36,49.36,0,0,0,.34-8.18,23.84,23.84,0,0,0,2.68-1.07c0.44-.24.83-0.59,1.27-0.88,2.22-1.46,4.44-2.81,6.53-4.33a21.33,21.33,0,0,1,2.58-1.8,12.07,12.07,0,0,0,1.56-.73A4.34,4.34,0,0,0,643.23,544.23Zm-41.48-13.38c0,0.47-.08.94-0.14,1.41,0,0.19,0,.28-0.07.47l-0.71.1,0.29-.63a16.44,16.44,0,0,0,.64-1.72v0.38ZM600.24,533l0.18-.33,0.24-.49c0,0.25-.1.5-0.16,0.75Zm-0.46.17c-0.43.2-.63,0.8-1,0.78a5.19,5.19,0,0,0,0-1.32,3.34,3.34,0,0,1,1.06-1.69V531c0,0.16,0,.24-0.08.41,0.09-.15.12-0.23,0.2-0.38s0.15-.32.22-0.49,0.28-.36.4-0.54h0l-0.06.24c-0.09.33-.18,0.66-0.29,1,0.08-.18.17-0.36,0.24-0.55l0.08-.2c0,0.23,0,.46-0.06.7a13.83,13.83,0,0,1-.24,1.45l-0.08.38A2.88,2.88,0,0,0,599.79,533.13Zm34,12.86c-1.12.27-2.23,0.45-3.36,0.83-1.71.58-3.42,1.43-5.16,2.19-0.62.27-.59,0.42-1.22,0.1a13.66,13.66,0,0,0-2.83-1,3.76,3.76,0,0,1-1.36-.39c-0.07-.1,0-0.13-0.15-0.2a2.21,2.21,0,0,0-.58-0.1,24.68,24.68,0,0,1-3.36-.2,9.49,9.49,0,0,1-2.34-1.07,6.13,6.13,0,0,1-.73-0.39,7.29,7.29,0,0,1-1-1.27,19.88,19.88,0,0,1-1.75-2.73c-0.26-.5-0.58-0.94-0.83-1.41s-0.26-.71-0.44-1c-0.35-.62-0.68-1.23-1-1.9a2.51,2.51,0,0,1-.44-0.93c2.29-.51,4.51-1.1,6.77-1.66a20.32,20.32,0,0,1,2.24-.53c0.34,0,.68,0,1,0a16.77,16.77,0,0,0,2.53-.73c2.41-.78,4.8-1.92,7.55-2.24,1-.11,2.19.09,3.26,0a77.14,77.14,0,0,1,2.44,7.45,13.93,13.93,0,0,0,3.65,6.24,2,2,0,0,0,.83.49A14.83,14.83,0,0,0,633.83,546Z" transform="translate(-534.81 -458.02)"/></svg>