<svg id="Layer_1" data-name="Layer 1" xmlns="http://www.w3.org/2000/svg" xmlns:xlink="http://www.w3.org/1999/xlink" viewBox="0 0 62.94 58.25"><defs><style>.cls-1{fill:url(#linear-gradient);}</style><linearGradient id="linear-gradient" x1="36.83" y1="128.35" x2="99.78" y2="128.35" gradientUnits="userSpaceOnUse"><stop offset="0" stop-color="#fff"/><stop offset="0.49" stop-color="#fdfdfd"/><stop offset="0.67" stop-color="#f6f6f6"/><stop offset="0.8" stop-color="#ebebeb"/><stop offset="0.9" stop-color="#dadada"/><stop offset="0.98" stop-color="#c4c4c4"/><stop offset="1" stop-color="#bfbfbf"/></linearGradient></defs><title>pilates</title><path class="cls-1" d="M99.6,155.92c0.28-.11.13-0.51-0.07-0.6,0.26-.14,0-0.44-0.13-0.53,0.26-.27-0.22-0.6-0.47-0.74a2,2,0,0,0-.64-0.13c-0.15,0-.29-0.13-0.43-0.17s-0.34,0-.5-0.07c-0.49-.1-1-0.16-1.47-0.27s-0.94-.28-1.3-0.4c-0.18-.06-0.38,0-0.5-0.1s-0.32-.32-0.5-0.4a7.25,7.25,0,0,0-1-.27c-0.35-.09-0.71-0.13-1-0.23a8.41,8.41,0,0,1-1.7-.8,31.62,31.62,0,0,1-3-2,13.85,13.85,0,0,0-3.21-1.8,31.91,31.91,0,0,0-4.08-1c-0.66-.15-1.33-0.33-2-0.53s-1.17-.52-1.74-0.77c-1.18-.52-2.1-1.24-3.18-1.84s-2.14-1.25-3.21-1.81a14.58,14.58,0,0,0-1.7-.8,8.09,8.09,0,0,1-1.34-.57c-0.14-.08-0.3-0.16-0.4-0.23a14.87,14.87,0,0,1-1.4-1.9,5.46,5.46,0,0,1-.57-0.54c0-.06,0-0.18,0-0.23a2.78,2.78,0,0,0-.33-0.37,4.66,4.66,0,0,0-.3-0.4c-0.11-.09-0.32-0.09-0.47-0.2s-0.22-.33-0.37-0.44a5.72,5.72,0,0,1-.74-0.43,3.75,3.75,0,0,1-.64-1.07c-0.18-.39-0.44-0.76-0.6-1.14s-0.32-.95-0.54-1.44-0.48-.92-0.64-1.37a8.43,8.43,0,0,0-.57-1.44,6.06,6.06,0,0,0-.4-0.6,2.52,2.52,0,0,1-.43-0.57c0-.08,0-0.29,0-0.37a2.43,2.43,0,0,0-.94-1.27c-0.13-.08-0.33-0.06-0.47-0.13s-0.3-.35-0.5-0.47-0.29-.07-0.37-0.13a2.58,2.58,0,0,1-.27-0.47c-0.1-.16-0.22-0.33-0.3-0.47a8.74,8.74,0,0,1-.6-0.94c-0.12-.31-0.19-0.68-0.3-1s-0.21-.68-0.3-1a39,39,0,0,1-.74-4.65,12.56,12.56,0,0,1-.2-2.51c0-.25.1-0.51,0.1-0.77a13.28,13.28,0,0,0-.5-3.08c-0.11-.49-0.18-1-0.27-1.5a10,10,0,0,1-.2-1.61,5.49,5.49,0,0,1,.74-2.14,10,10,0,0,0,.4-2.07c0-.18.09-0.37,0.1-0.57s0-.33,0-0.5,0.21-1-.2-1-0.15,1-.37,1.3c0-.65,0-1.43,0-2.07,0-.11-0.11-0.66-0.43-0.53a1,1,0,0,0-.07.87c0,0.29-.13.86-0.13,1.07a2.06,2.06,0,0,1,0,.63,1.47,1.47,0,0,1,0-.8,11.53,11.53,0,0,0,0-1.34c0-.42,0-1.12-0.43-0.94-0.28.11-.1,0.82-0.1,1.1s-0.08.53-.1,0.84a2,2,0,0,1-.13,1,11.65,11.65,0,0,0,.1-1.87c0-.18-0.11-0.73-0.43-0.6a1.72,1.72,0,0,0-.13,1.07c-0.05.56-.24,1.2-0.27,1.74a0.75,0.75,0,0,0-.67-0.53,2,2,0,0,0,.07.84,10.41,10.41,0,0,0,0,1.27,5.5,5.5,0,0,0,.33.77,4.69,4.69,0,0,1,.17.84c0.07,0.59.11,1.2,0.13,1.87a30,30,0,0,1-.17,3.78,14.26,14.26,0,0,0,0,3.68c0.09,0.59.16,1.21,0.2,1.81s0.12,1.31.1,1.9a12.16,12.16,0,0,1-.23,1.54,11.59,11.59,0,0,0-.17,3,1.8,1.8,0,0,1,0,.87c-0.06.09-.33,0.1-0.43,0.2s-0.11.23-.23,0.37-0.29.23-.33,0.3,0.06,0.16-.1.27c-0.5.33-.82-0.16-1.14-0.47a1.73,1.73,0,0,1-.53-0.7c-0.11-.55.3-0.72,0.27-1.17a1,1,0,0,0-.64-0.67c-0.09-.07-0.15-0.22-0.27-0.34s-0.25-.17-0.37-0.27S46.2,121.2,46,121s-0.18-.07-0.27-0.13a1.24,1.24,0,0,0-.23-0.2c-0.18,0-.36.16-0.4,0,0.19,0,.11-0.1,0,0s0.08-.13,0-0.27a0.9,0.9,0,0,0-.6-0.27,6.18,6.18,0,0,1-.64-0.15,0.2,0.2,0,0,0-.17,0h0l-0.21-.06-0.05,0,0.24,0-0.36,0-0.11-.06c0.08-.08.07-0.08,0-0.07l0.2-.11-0.24.06a0.15,0.15,0,0,0-.12,0H43l0,0a0.23,0.23,0,0,1,.1-0.06h0a2,2,0,0,1,.47-0.29,2.72,2.72,0,0,0-.76.27l-0.26.09a2.3,2.3,0,0,0-.47,0H42a2.64,2.64,0,0,0-.67.17,0.17,0.17,0,0,1,0-.13c-0.25,0-.08-0.16-0.06-0.25a1.8,1.8,0,0,0,.16-0.36,1.9,1.9,0,0,1-.29.36,0,0,0,0,0,0-.06l-0.09.16-0.12.1a0.55,0.55,0,0,0-.18.26l0,0h0a0.87,0.87,0,0,0,0-.47,0.85,0.85,0,0,1-.12.45,3.48,3.48,0,0,1-.17.31l-0.07.11-0.09.14h0l0,0-0.08,0H40.15v0s0.05-.1,0-0.13l0,0c0-.06,0-0.12,0-0.18a2.19,2.19,0,0,0-.08.5,0.66,0.66,0,0,0,0,.07c0,0.06-.07.07-0.17-0.06a0.18,0.18,0,0,1-.1-0.06l-0.1-.15,0-.05a1.66,1.66,0,0,1-.17-0.41,2.1,2.1,0,0,0,.25.93L39.8,121a0.37,0.37,0,0,0,0,.08l-0.08.13-0.13-.07a2,2,0,0,0-1.05-.36,1.2,1.2,0,0,1,.42.18c-0.12-.05-0.22-0.07-0.24,0a2.06,2.06,0,0,1,.38.1,4.27,4.27,0,0,1,.34.3h0c-0.24-.09-0.47-0.2-0.72-0.28l0.18,0.13h0l0,0,0.49,0.36h0l-0.07,0a0.26,0.26,0,0,1,.08.07l0,0.07a0.14,0.14,0,0,0-.09.13H39.2a1.33,1.33,0,0,0-.59.22A1.89,1.89,0,0,1,39,122h0l0,0h0.13l0,0a0,0,0,0,1,0,.05H39a1.74,1.74,0,0,0-.55.11h0.26c0.08,0,0,.08.06,0.07a0.14,0.14,0,0,1,.15-0.06,0.91,0.91,0,0,0-.53.45,0.05,0.05,0,0,1,.05,0l0,0.05-0.09,0a1.33,1.33,0,0,1-.59.07,1.41,1.41,0,0,0,.61.08l-0.07.18a0.3,0.3,0,0,0,0,.1,0.93,0.93,0,0,1-.36.26,1,1,0,0,0,.4-0.15,0.14,0.14,0,0,1,0,.1s0.21-.08.2,0l0,0a4.09,4.09,0,0,0-.22.57,1.2,1.2,0,0,1-.28.5,1.07,1.07,0,0,0,.35-0.33,0.07,0.07,0,0,1,.08,0,1,1,0,0,0,0,.51,3.22,3.22,0,0,0,.08.42l-0.14.21a2.71,2.71,0,0,0,.43-0.44l0,0c0,0.11-.06.21-0.08,0.32l0,0.21,0,0.1a0.37,0.37,0,0,1,0,.07,1.85,1.85,0,0,0-.09.2,0.85,0.85,0,0,0,0,.23,0.87,0.87,0,0,1,0,.2,0.47,0.47,0,0,1-.08.18,0.49,0.49,0,0,0,.13-0.17,1,1,0,0,0,.05-0.21l0-.08,0,0a1.45,1.45,0,0,1,.07-0.22l0.06-.08,0-.06a0.89,0.89,0,0,0,0,.12c0.06,0.19.15,0.34,0.21,0.5a0.45,0.45,0,0,1-.06.48,0.43,0.43,0,0,0,.16-0.22,0.71,0.71,0,0,0,0-.28c0-.08,0-0.16,0-0.24,0.06,0.09.12,0.22,0.15,0.24a1.21,1.21,0,0,0-.1-0.49,2.24,2.24,0,0,1,.21,1.09,1.81,1.81,0,0,0,.1-0.79l0,0.09a1.27,1.27,0,0,0,.31.41,1.77,1.77,0,0,0,.58.61,5.25,5.25,0,0,0,.55.37s-0.28-.28-0.3-0.39l0.11,0,0.27,0.08,0.08,0,0.1,0a0.31,0.31,0,0,1,.26.31,0.26,0.26,0,0,0,0-.24,0.68,0.68,0,0,0-.18-0.17l-0.07,0h0a4.15,4.15,0,0,1,.55.17,0.9,0.9,0,0,1,.25.15,0.19,0.19,0,0,1,0,.26,0.21,0.21,0,0,0,.07-0.14,0.3,0.3,0,0,0-.05-0.16,0.78,0.78,0,0,0-.14-0.16,1.13,1.13,0,0,1,.76,1.33A1.19,1.19,0,0,0,42.9,128a0.85,0.85,0,0,0-.08-0.39l0.08,0a4.46,4.46,0,0,0,.74.17,0.67,0.67,0,0,0,.31,0,0.49,0.49,0,0,1,.27.14,0.17,0.17,0,0,1,0,.18,0.65,0.65,0,0,1-.13.19,0.67,0.67,0,0,0,.19-0.16,0.27,0.27,0,0,0,0-.27,0.56,0.56,0,0,0-.19-0.21l0.09,0a1.79,1.79,0,0,1,.4.24,0.3,0.3,0,0,1,.11.18,0.25,0.25,0,0,1-.11.19,0.27,0.27,0,0,0,.17-0.19,0.32,0.32,0,0,0,0-.19h0a1,1,0,0,1,.36.6,0.78,0.78,0,0,1-.24.7,0.89,0.89,0,0,0,.45-0.71v0a1.47,1.47,0,0,0,.09.36c0-.05-0.08-0.74-0.06-0.75a0.24,0.24,0,0,0,.22.06l0.08,0.1,0,0.08a0.69,0.69,0,0,1-.13.48,0.76,0.76,0,0,0,.26-0.47,0.91,0.91,0,0,0,0-.3,1.51,1.51,0,0,1,.13-0.29,0.8,0.8,0,0,0,0-.19,1.61,1.61,0,0,1,.13,1.53c-0.31,0-.34.32-0.47,0.7a4.52,4.52,0,0,0-.2.6c0,0.11.06,0.24,0,.33a4.34,4.34,0,0,1-.3.5c-0.08.17-.1,0.37-0.17,0.5a5.31,5.31,0,0,0-.5.7c-0.52,1.66.06,3.71,0.17,5.58A12.47,12.47,0,0,1,43.1,138c-0.47,0-.91-0.22-1.37-0.27a2.21,2.21,0,0,0-2.27,1.17,2.5,2.5,0,0,0-.5,1.77,8.81,8.81,0,0,0,1,2.71,21.78,21.78,0,0,1,.8,2.91c0.26,0.93.58,1.9,0.87,2.84a12,12,0,0,1,.7,3,2.75,2.75,0,0,1-.57,1.74,7.71,7.71,0,0,1-2.44,1.37c-0.32.13-.61,0.3-0.9,0.4s-0.39.06-.67,0.13c-0.1,0-.26.14-0.43,0.2a0.58,0.58,0,0,0-.47.2,0.43,0.43,0,0,0,.33.43,1.87,1.87,0,0,0,.77,0,2.33,2.33,0,0,1,.77.1l0.33,0.07c1.26,0.1,2.87-.27,4.15-0.13,0.26,0,.57.14,0.9,0.17a2.17,2.17,0,0,0,1.37-.27,1.33,1.33,0,0,0,.2-0.5,2.31,2.31,0,0,1,.2-0.53c0.1-.1.36-0.07,0.44-0.17a2.8,2.8,0,0,0,.17-0.63,4.07,4.07,0,0,0,0-1.67,22,22,0,0,1-.64-3.28c0-2.23.82-4,.94-6.12a18.69,18.69,0,0,0,3.95,1.74c0.77,0.23,1.47.44,2.14,0.7a5.8,5.8,0,0,1,1,.44c0.28,0.18.5,0.42,0.8,0.63A5.21,5.21,0,0,0,61.15,146a1.16,1.16,0,0,1,.4-0.5,4.13,4.13,0,0,1,.53.23c0.13,0,.25-0.1.37-0.1a4.5,4.5,0,0,1,.64.2c0.7,0.17,1.43.31,2.14,0.44a9.28,9.28,0,0,1,2,.6,4.6,4.6,0,0,0,.6.27c0.28,0.07.58,0.07,0.87,0.13,1.92,0.42,3.7,1,5.55,1.54,1,0.29,2,.74,3,1a14.81,14.81,0,0,0,1.74.27,10.53,10.53,0,0,1,2.94,1.1c1.45,0.67,3.22.75,4.88,1.2a19,19,0,0,1,3,1,20.76,20.76,0,0,1,2,1,6.34,6.34,0,0,0,.64.4c0.3,0.13.56,0.14,0.8,0.27s0.36,0.31.57,0.43c0.68,0.41,1.66.74,2.37,1.14a2.33,2.33,0,0,0,1.37.57,2,2,0,0,1,.4-0.1,1.21,1.21,0,0,1,.23.17c0.53,0.33,1.53-.11,1.1-0.77C99.74,156.74,99.95,156.07,99.6,155.92ZM38.42,122.85h0.05S38.47,122.88,38.42,122.85Zm0.22,1.88q-0.06.13-.13,0.26a0.7,0.7,0,0,1,0-.48,0.74,0.74,0,0,0,.25-0.32h0A1.51,1.51,0,0,1,38.64,124.73Zm6,3.06-0.06-.06,0.08,0Zm-0.54,14.82a0.91,0.91,0,0,1-.17-0.37A0.26,0.26,0,0,1,44.07,142.62Zm3.34-4.35a19.9,19.9,0,0,0,.23-2.74,2.39,2.39,0,0,1,.2-0.87,7.86,7.86,0,0,1,1.27.53c0.15,0,0,.15.1,0.2a6.57,6.57,0,0,1,.94.37c0.08,0,.15.13,0.23,0.17s0.2,0,.3,0a2.81,2.81,0,0,1,.37.2,5,5,0,0,1,.8.6,2,2,0,0,0,.33.3,2.94,2.94,0,0,1,.6.47,5,5,0,0,1,.54,1.47A23.76,23.76,0,0,0,47.41,138.27ZM98.6,156.39c0.07-.23.34,0,0.47,0.07C99,156.49,98.77,156.38,98.6,156.39Z" transform="translate(-36.83 -99.22)"/></svg>