<svg id="Object" xmlns="http://www.w3.org/2000/svg" viewBox="0 0 121.44 128.84"><defs><style>.cls-1{fill:#fff;}</style></defs><title>tomato-bullet</title><path class="cls-1" d="M740.2,1013.14s-6.3-2.1-8.59-4.77-2.67-7.44-2.67-7.44,5.73,8,13.36,5.53,12-4.39,14.7-2.29,9.92,4.77,9.92,4.77,2.86-6.11,5.73-6.3,7.63,1.15,10.5-1.15,5.73-11.64,5.73-11.64,0.76,12-1.34,15.08-11.26,8-16.22,9a24.71,24.71,0,0,1-12.79-1.15C755.28,1011.62,741.35,1013,740.2,1013.14Z" transform="translate(-710.71 -972.49)"/><path class="cls-1" d="M760,999.79a15.47,15.47,0,0,0-4-8.59c-3.82-4.39-6.68-10.5-6.3-11.64s5.53-2.86,6.11-3.24,3.82,4.77,5.92,10.5a40.71,40.71,0,0,1,2.1,12.21Z" transform="translate(-710.71 -972.49)"/><path class="cls-1" d="M740.77,1015.82c-14.91,6.39-33.59,27.86-27.48,48.09s32.44,39.7,60.31,35.88,43.9-17.56,50-39.7-10.69-41.6-24-46.95-18.32,1.14-27.1,1.14-15.27-1.91-21-1.91S746.12,1013.53,740.77,1015.82Z" transform="translate(-710.71 -972.49)"/><path class="cls-1" d="M761.44,981.2c2.6,5.68,2.19,10.61,1.27,16.58a1.08,1.08,0,0,0,1.79,1c5.31-5.18,2.71-13.57.1-19.45-0.76-1.71-2.34-6.9-4.85-6.88-3.68,0-8.5,3.38-11.84,4.82a1.71,1.71,0,0,0-.81,2c2.76,6.89,8.43,12,11.54,18.63-1.68-1.15-3.42-1.8-5-1.38-3.19.88-5.82,3.47-9.16,4.4-6.19,1.72-12.87-.65-17.48-4.79-1.15-1-3.49-.07-2.84,1.64,2.4,6.34,7.38,13.85,14.18,16.21a67.93,67.93,0,0,0-14.3,10.19c-10,9.17-15.07,27.19-12.85,40.27,2.4,14.13,16.21,24.45,28.2,30.2,13.18,6.32,29.24,7.91,43.59,5.79,16.17-2.38,29.67-7,38.86-21,8.91-13.58,13.06-26.85,8.23-42.83-4-13.14-15-24.23-27.16-30-4.81-2.27-11.21-3.63-16.51-2.56-7.52,1.52-14.57,9.09-22.33,7.86a1.72,1.72,0,0,0-.89,3.33c6.8,2,12-2.13,17.71-5.44,12.91-7.56,28.08,3,36.92,12.1,10.37,10.7,13.28,26.72,8.88,40.64-2,6.3-6.28,12.06-9.87,17.52-5.1,7.75-12.19,10.83-20.68,13.56-24.64,7.93-54.16,4.22-72.82-14.69-12.21-12.38-9.79-28.3-3.26-42.81,5.32-11.82,25.16-26.71,38.64-21.55,1.61,0.62,2.7-2,1.17-2.79-5.64-2.78-12.06-1.9-18.16.61-4.16-3.39-8.18-5.93-11.21-10a24.35,24.35,0,0,0,12.41,2.16,22.26,22.26,0,0,0,8.62-2.82c4.8-2.49,8.86,3.27,13.35,5.07a0.7,0.7,0,0,0,.86-0.33,3.43,3.43,0,0,0,2-1.69c1.34-1.9,3.44-6.24,6.91-3.63a3.29,3.29,0,0,0,2.46.74c6-1.12,7.85-7.67,10.58-12.73,0,4.62-1.16,8.91-1.52,13.74a1,1,0,0,0,1.68.7c4.56-5.35,4.11-13.48,2.93-20a1.87,1.87,0,0,0-3.1-.83c-2.42,2.29-3.36,5.25-4.76,8.2a26.09,26.09,0,0,1-3.7,5.42c-1.82,2.17-2.13,1.42-4.24.8-5.38-1.57-7.87,2.78-10.36,6.7a33.41,33.41,0,0,0-3.16-3.68,1.27,1.27,0,0,0,.37-1.15c-1.18-7.65-7.56-12.69-10.78-19.42l5.52-2.35C759.95,976,760.18,978.47,761.44,981.2Z" transform="translate(-710.71 -972.49)"/><path class="cls-1" d="M727,1036.53c-18.17,16.58,2.62,49.79,23.48,51.86,1.15,0.11,1.25-1.41.52-1.95-8.38-6.25-16.61-9.46-22.58-18.8-6.27-9.82-4.09-20.32-.18-30.38C728.58,1036.51,727.54,1036.07,727,1036.53Z" transform="translate(-710.71 -972.49)"/><path class="cls-1" d="M745.9,1077c0.71,2.71,2.67,4.09,4.94,5.53,3.27,2.08,6.6,4,10.45,4.67,0.72,0.12,1.53-.82.81-1.39a39.25,39.25,0,0,0-6.53-4c-2.72-1.41-6.43-2.86-8.33-5.39A0.74,0.74,0,0,0,745.9,1077Z" transform="translate(-710.71 -972.49)"/></svg>